<svg xmlns="http://www.w3.org/2000/svg" viewBox="0 0 842 596"><defs><style>.cls-1,.cls-10,.cls-12,.cls-2,.cls-9{fill:#00afdf;}.cls-1,.cls-10,.cls-13,.cls-2,.cls-3,.cls-4,.cls-5,.cls-6,.cls-7{stroke:#fff;}.cls-1,.cls-10,.cls-11,.cls-13,.cls-15,.cls-2,.cls-3,.cls-4,.cls-5,.cls-6,.cls-7,.cls-8,.cls-9{stroke-miterlimit:10;}.cls-2,.cls-3{stroke-width:2px;}.cls-3{fill:#00cef4;}.cls-4{fill:#ffa22a;}.cls-10,.cls-11,.cls-15,.cls-4,.cls-6,.cls-7,.cls-8,.cls-9{stroke-width:3px;}.cls-5,.cls-6,.cls-8{fill:none;}.cls-5{stroke-width:5px;}.cls-13,.cls-14,.cls-15,.cls-7{fill:#fff;}.cls-8{stroke:#ed00ff;}.cls-15,.cls-9{stroke:#00afdf;}.cls-11{fill:#f4e300;stroke:#000;}</style></defs><g id="pintura"><path class="cls-1" d="M661.5,229.78c-20.67,7-41.83,13.5-62.5,20.5a91,91,0,0,0,9-28c1.12-7.61.14-7.79,1-16,2.51-23.85,12.22-35.55,7-41-1-1.05-3.7-1.34-9-2a56,56,0,0,0-16,0c-6.3.93-8,2.36-10,1-2.15-1.49-1.67-4.27-3-10,0,0-.64-2.76-4-11-2.49-6.11-11.35-22.29-29-36-7.15-5.56-18.56-14.42-36-18-21.56-4.43-39,2-47,5,0,0-32.23,12.26-53,48-3.85,6.62-6.46,11.1-8,18-1.81,8.06-1.31,15.68-3,14-1.5-1.5-7.26-8.71-16-15-9.28-6.69-20.75-7.1-30-6l-24.6-49.19a4.13,4.13,0,0,1,2.54-5.26L577.36,8.18a4.13,4.13,0,0,1,5.34,2.38C608.8,83.46,635.4,156.87,661.5,229.78Z" transform="translate(0.5 0.22)"/><path class="cls-2" d="M532.54,184.25c-44.67-3.77-90.09-6.63-133.54-11a31.13,31.13,0,0,1,.47-6.2c.44-1.8.68-2.17,1.93-5.87,1.58-4.69,1.64-5.39,2.88-8.79,0,0,.94-2.57,1.94-4.89A82.51,82.51,0,0,1,414,133.82a136.5,136.5,0,0,1,10.81-13.74c29.38-31.71,69.41-32.17,69.41-32.17,41.17-.48,69.49,27.64,77.23,40.41,5,8.17,8.37,22.44,8.58,23.32,1.09,4.63,2.88,10.34.16,12.66a5.24,5.24,0,0,1-3,1c-1.58.19-6.36,1.48-15.94,4.05a76.32,76.32,0,0,0-11.93,4c-2.53,1.12-4.56,2.2-6,3Z" transform="translate(0.5 0.22)"/><polygon class="cls-1" points="662.5 322 657 322 657 231.5 662 230 662.5 322"/><path class="cls-3" d="M584,191.28" transform="translate(0.5 0.22)"/><polygon class="cls-1" points="669.63 361.88 647.1 361.14 636.48 341.26 648.38 322.13 670.9 322.86 681.52 342.74 669.63 361.88"/><path class="cls-4" d="M649.5,563.78c-253.83,20.29-317.83,10.88-321-4-.76-3.59-3-31-3-31h0a103.87,103.87,0,0,1,7-26c3.37-7.7,7.09-16.2,15-19,4.45-1.58,5.93.16,12-2,7.23-2.59,7.73-6,13-7,4.81-.93,7,1.4,15,4,11.41,3.7,20.91,3.49,21,3,.16-.86-28.47-.42-47-19a70.06,70.06,0,0,1-12-17,84,84,0,0,0,12,17c7.7,8.63,11.38,9.48,11,12-1.05,7-31.54,14.89-49,2-11.84-8.74-15-25-15-25a61,61,0,0,0,8,15c4.88,6.9,7.51,8,7,10-1.27,4.83-19.61,6-35,2-12-3.16-27.62-12.92-34-23-.21-.33-5.28-6-6-6-1.28,0,7.09,3.73,6,8-1.26,4.94-15,14-15,14-8.52-3.15-39.39-17.68-54-47-13.74-27.59-7.67-54.67-4-71a138.72,138.72,0,0,1,19-45,393.91,393.91,0,0,1,71-52c41.27-23.56,67.95-28.53,76-53,7.3-22.2-6.21-43.74,4-50,7.35-4.51,20.81,2.69,27,6,10.21,5.45,9.93,10.17,19,15,0,0,8.42-.17,23,1,23.83,1.89,40.74,2.84,44,3,32.25,1.52,30.25,2.38,44,4,10.2,1.19,13.71,3.87,24,1,6-1.67,7-3.22,15-7a131.65,131.65,0,0,1,37-11,115.73,115.73,0,0,1,31,0c5,13-7.91,28.26-8,37-.13,12.19,2.35,17.09-1,27-3.23,9.56-8.2,12.85-8,21,.19,8,5.15,13.68,7,16,5.66,7.06,12.78,27.71,27,69C643.27,367,652.28,451.56,649.5,563.78Z" transform="translate(0.5 0.22)"/><ellipse class="cls-5" cx="444" cy="267" rx="68" ry="57"/><path class="cls-5" d="M309.5,236.78,287.1,247.2a24.73,24.73,0,0,1-.6-5.42,25,25,0,0,1,43.11-17.24Z" transform="translate(0.5 0.22)"/><line class="cls-5" x1="374" y1="257" x2="288" y2="247"/><path class="cls-6" d="M415.5,275.78a82.57,82.57,0,0,1,67-38" transform="translate(0.5 0.22)"/><ellipse class="cls-7" cx="454.59" cy="256.47" rx="29.5" ry="11.84" transform="translate(-62.01 185.71) rotate(-21.61)"/><path class="cls-6" d="M269.5,354.78a18.27,18.27,0,0,0-4-13,18,18,0,0,0-10-6" transform="translate(0.5 0.22)"/><path class="cls-6" d="M199.5,349.78a14.81,14.81,0,0,1-1-12c2.77-7.38,10.6-8.93,11-9" transform="translate(0.5 0.22)"/><path class="cls-8" d="M255.5,528.78" transform="translate(0.5 0.22)"/><path class="cls-8" d="M231.5,500.78" transform="translate(0.5 0.22)"/><path class="cls-8" d="M216.5,483.78" transform="translate(0.5 0.22)"/><path class="cls-9" d="M215.5,517.78a38.3,38.3,0,0,0,26-21,73.26,73.26,0,0,1,6,10,77.66,77.66,0,0,1,5,13c1.23,4.26,3.2,11.06,3,16-.57,14.35-20.24,32.28-40.69,30.09-14.12-1.52-22.6-12-24.31-14.09-12.91-15.94-13.67-42-2-52,5-4.3,12.1-5.43,22-7a88.11,88.11,0,0,1,18-1,57.73,57.73,0,0,0-28,3c-1.73.65-17.66,6.68-17,13,.34,3.24,4.91,5.22,9,7A43.74,43.74,0,0,0,215.5,517.78Z" transform="translate(0.5 0.22)"/><path class="cls-10" d="M213.5,510.78l15-5Q244.63,486.4,260.74,467l-7-5.84Z" transform="translate(0.5 0.22)"/><path class="cls-11" d="M764.5,485.78" transform="translate(0.5 0.22)"/></g><g id="fondo"><rect class="cls-12" width="842" height="596"/></g><g id="letra"><path class="cls-13" d="M67.5,225.7h-10v4.89H68.65l-.74,5H51.08v-24H67.91v5H57.46v4.14h10Z" transform="translate(0.5 0.22)"/><path class="cls-13" d="M71.73,211.58H81c7.79,0,11.55,4.54,11.55,11.57,0,7.68-4.16,12.4-11.66,12.4H71.73Zm6.64,19.21h2.19c3.48,0,5.11-2.33,5.11-7.55,0-4.51-1.36-6.87-5-6.87H78.37Z" transform="translate(0.5 0.22)"/><path class="cls-13" d="M102.74,211.58v15.53c0,2.12.57,4,3.38,4s3.28-1.85,3.28-4V211.58h6.66v15.31c0,5.58-2.81,9.11-10.06,9.11s-9.87-3.57-9.87-9.12v-15.3Z" transform="translate(0.5 0.22)"/><path class="cls-13" d="M128.91,223.94v5h-9.57v-5Z" transform="translate(0.5 0.22)"/><path class="cls-13" d="M151.26,227.79c0-3.72.07-8.81.17-11.65h-.22c-.9,5.19-2.59,13.18-4.14,19.41h-5.32c-1.2-5.94-2.84-14.12-3.67-19.4h-.24c.19,2.8.31,7.7.31,11.83v7.57h-5.9v-24h9.51c1.08,4.33,2.5,11.74,3,15.23h.12c.55-3.76,2.21-10.3,3.49-15.23h9.23v24h-6.33Z" transform="translate(0.5 0.22)"/><path class="cls-13" d="M167.68,230.69l-1.21,4.86H160l6.71-24h8.88l7,24h-6.87l-1.33-4.86Zm5.63-5.15c-1-3.6-1.81-7.06-2.3-9.53h-.1c-.49,2.64-1.3,6.12-2.2,9.53Z" transform="translate(0.5 0.22)"/><path class="cls-13" d="M187.16,216.57H181v-5h19v5h-6.15v19h-6.62Z" transform="translate(0.5 0.22)"/><path class="cls-13" d="M222.36,227.59c-.65,4.72-3.69,8.41-10.25,8.41-8.09,0-10.8-5.66-10.8-12.39s3.46-12.45,11-12.45c7.28,0,9.71,4.6,9.9,8.29h-6.49c-.34-1.83-.93-3.44-3.52-3.44-3.09,0-4.08,3.18-4.08,7.58s1,7.55,4.09,7.55c2.6,0,3.29-1.92,3.61-3.55Z" transform="translate(0.5 0.22)"/><path class="cls-13" d="M225.52,211.58h6.62v8.93h6.64v-8.93h6.63v24h-6.63v-9.89h-6.64v9.89h-6.62Z" transform="translate(0.5 0.22)"/><path class="cls-14" d="M56.43,246.87H53.27v1.54h3.52L56.56,250H51.27v-7.53h5.29V244H53.27v1.3h3.16Z" transform="translate(0.5 0.22)"/><path class="cls-14" d="M57.76,250v-7.53h2.51c1.6,3.81,1.92,4.68,2,5h0c-.08-.88-.1-2.17-.1-3.34v-1.65h1.9V250H61.69c-1.73-4.26-2-4.94-2.08-5.22h0c.06.94.07,2.23.07,3.53V250Z" transform="translate(0.5 0.22)"/><path class="cls-14" d="M71.92,247.47a2.91,2.91,0,0,1-3.22,2.64c-2.54,0-3.39-1.78-3.39-3.89s1.08-3.92,3.47-3.92,3,1.45,3.11,2.61h-2c-.11-.58-.3-1.08-1.11-1.08-1,0-1.28,1-1.28,2.38s.32,2.37,1.29,2.37c.81,0,1-.6,1.13-1.11Z" transform="translate(0.5 0.22)"/><path class="cls-14" d="M75,242.44v4.88c0,.66.17,1.27,1.06,1.27s1-.58,1-1.27v-4.88h2.09v4.81c0,1.75-.88,2.86-3.16,2.86s-3.1-1.12-3.1-2.87v-4.8Z" transform="translate(0.5 0.22)"/><path class="cls-14" d="M85.76,246.87H82.6v1.54h3.52L85.88,250H80.6v-7.53h5.28V244H82.6v1.3h3.16Z" transform="translate(0.5 0.22)"/><path class="cls-14" d="M87.09,250v-7.53H89.6c1.59,3.81,1.92,4.68,2,5h0c-.08-.88-.11-2.17-.11-3.34v-1.65h1.9V250H91c-1.74-4.26-2-4.94-2.08-5.22h0c.07.94.07,2.23.07,3.53V250Z" transform="translate(0.5 0.22)"/><path class="cls-14" d="M96.3,244H94.36v-1.56h6V244H98.38v6H96.3Z" transform="translate(0.5 0.22)"/><path class="cls-14" d="M103.25,247.07V250h-2v-7.53h3.44c1.65,0,2.56.87,2.56,2.06a1.76,1.76,0,0,1-1.16,1.78,1.66,1.66,0,0,1,1,1.8v.23a12.3,12.3,0,0,0,.09,1.66h-2a5.47,5.47,0,0,1-.15-1.66v-.21c0-.79-.26-1-1.06-1Zm0-1.47h.87c.62,0,1-.24,1-.88s-.39-.81-.92-.81h-1Z" transform="translate(0.5 0.22)"/><path class="cls-14" d="M110.24,248.44l-.38,1.53h-2l2.1-7.53h2.8l2.2,7.53h-2.16l-.42-1.53Zm1.77-1.62c-.3-1.13-.56-2.21-.72-3h0c-.15.83-.41,1.92-.69,3Z" transform="translate(0.5 0.22)"/><path class="cls-14" d="M119.08,244h-1.94v-1.56h6V244h-1.93v6h-2.09Z" transform="translate(0.5 0.22)"/><path class="cls-14" d="M126,242.44v4.88c0,.66.18,1.27,1.06,1.27s1-.58,1-1.27v-4.88h2.09v4.81c0,1.75-.88,2.86-3.16,2.86s-3.11-1.12-3.11-2.87v-4.8Z" transform="translate(0.5 0.22)"/><path class="cls-14" d="M140.35,250h-1.47a6.33,6.33,0,0,1-.12-.76,2.13,2.13,0,0,1-2,.9c-2.19,0-3.1-1.79-3.1-3.83,0-2.24,1.23-4,3.59-4,2.09,0,3,1.12,3.14,2.38h-2a1,1,0,0,0-1.16-.85c-1,0-1.38,1-1.38,2.43s.38,2.33,1.4,2.33c.86,0,1.13-.63,1.13-1.36v-.06h-1.22v-1.5h3.26Z" transform="translate(0.5 0.22)"/><path class="cls-14" d="M143.71,247.07V250h-2v-7.53h3.44c1.65,0,2.56.87,2.56,2.06a1.76,1.76,0,0,1-1.16,1.78,1.66,1.66,0,0,1,1,1.8v.23a12.3,12.3,0,0,0,.09,1.66h-2a5.47,5.47,0,0,1-.15-1.66v-.21c0-.79-.26-1-1.06-1Zm0-1.47h.88c.61,0,1-.24,1-.88s-.39-.81-.92-.81h-1Z" transform="translate(0.5 0.22)"/><path class="cls-14" d="M150.85,242.44v4.88c0,.66.18,1.27,1.06,1.27s1-.58,1-1.27v-4.88H155v4.81c0,1.75-.89,2.86-3.16,2.86s-3.11-1.12-3.11-2.87v-4.8Z" transform="translate(0.5 0.22)"/><path class="cls-14" d="M156.45,242.44h3.12c1.51,0,2.8.78,2.8,2.36s-1.2,2.45-2.92,2.45h-.95V250h-2.05Zm2.05,3.32h.74c.69,0,1-.29,1-.95s-.39-.89-1-.89h-.77Z" transform="translate(0.5 0.22)"/><path class="cls-14" d="M170.24,246.16c0,2.2-1,4-3.62,4s-3.48-1.76-3.48-4c0-2,1.05-3.85,3.6-3.85S170.24,244.12,170.24,246.16Zm-4.94,0c0,1.44.43,2.44,1.4,2.44s1.39-.92,1.39-2.45c0-1.33-.32-2.32-1.41-2.32S165.3,244.75,165.3,246.15Z" transform="translate(0.5 0.22)"/></g><g id="azul"><path class="cls-15" d="M661.5,229.78c-20.67,7-41.83,13.5-62.5,20.5a49.08,49.08,0,0,1,1.5-7.5c2.48-8.81,6.43-13.41,7.5-20.5.37-2.45.54-5.11.54-5.11.2-3.1.12-5.43.1-6a46.75,46.75,0,0,0-1.14-8.43c-2.27-10.75,13.67-31.62,8.5-37.5-.79-.9-4.06-.7-10.5-1.5a73.08,73.08,0,0,0-14,0c-6.35.57-8.53,1.86-10.5.5-2.15-1.49-1.67-4.27-3-10,0,0-.64-2.76-4-11-2.49-6.11-11.35-22.29-29-36-7.15-5.56-18.56-14.42-36-18-21.56-4.43-39,2-47,5,0,0-32.23,12.26-53,48-3.85,6.62-6.46,11.1-8,18-1.61,7.19-1.39,14-2.52,14.23-.22,0-.41-.16-.48-.23-1.3-1.27.17,1-7.5-4.5-5.54-4-7.77-6.18-12-9s-8.94-5.93-15.57-7.21a35,35,0,0,0-10.93-.29l-24.6-49.19a4.13,4.13,0,0,1,2.54-5.26L577.36,8.18a4.13,4.13,0,0,1,5.34,2.38C608.8,83.46,635.4,156.87,661.5,229.78Z" transform="translate(0.5 0.22)"/><path class="cls-15" d="M398.47,174.08c.07-.25.18-.64.3-1.1a62.72,62.72,0,0,0,1.73-10.2c.39-3.91,1.92-7.27,5-14a93.88,93.88,0,0,1,8-14,101,101,0,0,1,7-9c5.94-6.86,15.11-18.2,26.48-25.11A87.88,87.88,0,0,1,493.5,87.78c44.64.72,70.33,37.91,77,47.54,9.33,13.49,14.72,28.16,11,31.46-1.29,1.14-2.83.14-9.86,2.23-2.75.82-6.25,2.09-8.14,2.77-6.13,2.19-6.78,2.76-13,5-3.78,1.35-6.92,2.35-9,3l-6,5" transform="translate(0.5 0.22)"/><polygon class="cls-13" points="661.69 322.5 656.8 322.5 657.5 235.48 661.25 234.5 661.69 322.5"/><path class="cls-15" d="M584,191.28" transform="translate(0.5 0.22)"/><polygon class="cls-7" points="669.63 361.88 647.1 361.14 636.48 341.26 648.38 322.13 670.9 322.86 681.52 342.74 669.63 361.88"/><path class="cls-15" d="M649.5,563.78c-253.83,20.29-317.83,10.88-321-4h0L326.69,541a77.18,77.18,0,0,1,5-36.41c.25-.62.51-1.24.78-1.85,3.37-7.7,7.09-16.2,15-19,4.45-1.58,5.93.16,12-2,7.23-2.59,7.73-6,13-7,4.81-.93,7,1.4,15,4,11.41,3.7,20.91,3.49,21,3,.16-.86-28.47-.42-47-19a70.06,70.06,0,0,1-12-17,84,84,0,0,0,12,17c7.7,8.63,11.38,9.48,11,12-1.05,7-31.54,14.89-49,2-11.84-8.74-15-25-15-25a61,61,0,0,0,8,15c4.88,6.9,7.51,8,7,10-1.27,4.83-19.61,6-35,2-12-3.16-27.62-12.92-34-23-.21-.33-5.28-6-6-6-1.28,0,7.09,3.73,6,8-1.26,4.94-13,18-13,18-8.52-3.15-41.39-21.68-56-51-15.25-30.62-6.8-60.12-4-71,5.8-22.54,19.67-41.23,19.71-41.29h0c7.11-8.53,13.18-14.71,18.29-18.71a437.29,437.29,0,0,1,52-37c44.37-26.94,68.5-30.2,76-53,7.3-22.2-6.21-43.74,4-50,7.35-4.51,20.81,2.69,27,6,10.21,5.45,9.93,10.17,19,15,0,0,8.42-.17,23,1,23.83,1.89,40.74,2.84,44,3,32.25,1.52,30.25,2.38,44,4,10.2,1.19,13.71,3.87,24,1,6-1.67,7-3.22,15-7a131.65,131.65,0,0,1,37-11,115.73,115.73,0,0,1,31,0c5,13-7.91,28.26-8,37-.13,12.19,2.35,17.09-1,27-3.23,9.56-8.2,12.85-8,21,.19,8,5.15,13.68,7,16,5.66,7.06,12.78,27.71,27,69C643.27,367,652.28,451.56,649.5,563.78Z" transform="translate(0.5 0.22)"/><ellipse class="cls-15" cx="444" cy="267" rx="68" ry="57"/><path class="cls-15" d="M309.5,236.78,287.1,247.2a24.73,24.73,0,0,1-.6-5.42,25,25,0,0,1,43.11-17.24Z" transform="translate(0.5 0.22)"/><line class="cls-15" x1="374" y1="257" x2="288" y2="247"/><path class="cls-15" d="M415.5,275.78a82.57,82.57,0,0,1,67-38" transform="translate(0.5 0.22)"/><ellipse class="cls-9" cx="454.59" cy="256.47" rx="29.5" ry="11.84" transform="translate(-62.01 185.71) rotate(-21.61)"/><path class="cls-15" d="M269.5,359.78c.11-1.27.53-12.55-4-18a18,18,0,0,0-10-6" transform="translate(0.5 0.22)"/><path class="cls-15" d="M199.5,349.78a14.81,14.81,0,0,1-1-12c2.77-7.38,10.6-8.93,11-9" transform="translate(0.5 0.22)"/><path class="cls-15" d="M255.5,528.78" transform="translate(0.5 0.22)"/><path class="cls-15" d="M231.5,500.78" transform="translate(0.5 0.22)"/><path class="cls-15" d="M216.5,483.78" transform="translate(0.5 0.22)"/><path class="cls-7" d="M214.5,517.78a38.3,38.3,0,0,0,26-21,73.26,73.26,0,0,1,6,10,77.66,77.66,0,0,1,5,13c1.23,4.26,3.2,11.06,3,16-.57,14.35-20.24,32.28-40.69,30.09-14.12-1.52-22.6-12-24.31-14.09-12.91-15.94-13.67-42-2-52,5-4.3,12.1-5.43,22-7a88.11,88.11,0,0,1,18-1,57.73,57.73,0,0,0-28,3c-1.73.65-17.66,6.68-17,13,.34,3.24,4.91,5.22,9,7A43.74,43.74,0,0,0,214.5,517.78Z" transform="translate(0.5 0.22)"/><path class="cls-15" d="M214,510.38l16-4.86,33.59-40.39-7.72-6.46Z" transform="translate(0.5 0.22)"/><path class="cls-15" d="M145.5,301.78" transform="translate(0.5 0.22)"/><path class="cls-15" d="M159.5,306.78" transform="translate(0.5 0.22)"/><path class="cls-15" d="M159.5,276.78" transform="translate(0.5 0.22)"/></g></svg>